<svg width="168" height="167" viewBox="0 0 168 167" fill="none" xmlns="http://www.w3.org/2000/svg">
<path d="M25.5174 137.499L33.1798 126.84L32.3149 125.689L21.7002 129.46L28.2885 120.329L27.4044 119.152L15.0237 123.529L15.8213 124.591L26.3464 120.807L26.3657 120.833L19.8189 129.913L20.7126 131.102L31.1962 127.37L31.2154 127.395L24.691 136.399L25.5174 137.499Z" fill="black"/>
<path d="M10.217 112.531L10.703 113.75L22.3396 109.109L21.8536 107.89L10.217 112.531Z" fill="black"/>
<path d="M4.75479 89.7553L4.93722 91.0384L15.297 89.5654L5.97777 98.3568L6.19174 99.8616L18.595 98.0981L18.4126 96.815L7.84682 98.3173L17.3562 89.3857L17.158 87.9917L4.75479 89.7553Z" fill="black"/>
<path d="M6.39961 66.2357L6.19466 67.5154L16.527 69.1702L5.02566 74.8144L4.78528 76.3152L17.1556 78.2965L17.3606 77.0168L6.82288 75.3291L18.5473 69.6072L18.77 68.2169L6.39961 66.2357Z" fill="black"/>
<path d="M13.7399 46.5335L10.392 53.6227L21.7203 58.9726L25.0955 51.8255L23.996 51.3062L21.181 57.267L17.0721 55.3265L19.6207 49.93L18.5211 49.4108L15.9726 54.8073L12.0518 52.9556L14.8395 47.0528L13.7399 46.5335Z" fill="black"/>
<path d="M28.9237 37.4549L35.1813 37.9328L36.2193 36.7152L29.6771 36.2259C30.2232 35.388 30.4726 34.5283 30.4233 33.6242C30.374 32.7202 29.9607 31.9473 29.1814 31.283C28.39 30.6083 27.4815 30.3174 26.4701 30.4433C25.4691 30.5571 24.4953 31.1567 23.5507 32.2647L20.7377 35.5643L30.2714 43.692L31.1226 42.6936L27.2629 39.4031L28.9237 37.4549ZM22.5264 35.3652L24.4364 33.1248C25.8585 31.4567 27.2849 31.4113 28.3564 32.3247C28.8921 32.7814 29.1783 33.3829 29.2132 34.1065C29.2481 34.8301 28.9239 35.6049 28.2389 36.4085L26.3497 38.6245L22.5264 35.3652Z" fill="black"/>
<path d="M50.8344 23.3193C50.2683 23.6178 50.0543 24.3096 50.3529 24.8757C50.6514 25.4417 51.3432 25.6557 51.9093 25.3572C52.4612 25.066 52.6752 24.3743 52.3766 23.8082C52.078 23.2421 51.3863 23.0281 50.8344 23.3193Z" fill="black"/>
<path d="M77.5314 17.6264C78.9487 17.4884 80.1233 17.0043 81.0218 16.1612C81.9363 15.3166 82.5326 14.3422 82.795 13.2396L81.5623 12.797C81.0364 14.8255 79.6718 16.1641 77.4582 16.3796C76.0409 16.5176 74.8304 16.1372 73.8121 15.2557C72.7939 14.3743 72.2111 13.1771 72.0669 11.6961C71.9227 10.2151 72.2826 8.95832 73.1291 7.91135C73.9915 6.86283 75.0916 6.27343 76.4452 6.14162C77.6395 6.02531 78.6245 6.23484 79.4 6.77019C80.1899 7.28807 80.7724 7.9869 81.1603 8.8333L82.286 8.1771C81.8492 7.15864 81.1094 6.33044 80.0651 5.67658C79.0209 5.02271 77.7893 4.75683 76.3561 4.89639C74.6203 5.06542 73.1982 5.81478 72.0899 7.14446C70.98 8.45822 70.5237 10.0459 70.7051 11.9091C70.885 13.7564 71.6216 15.2118 72.9322 16.2899C74.2413 17.352 75.7797 17.797 77.5314 17.6264Z" fill="black"/>
<path d="M95.5633 13.219L98.3113 18.8612L99.8865 19.1421L97.0045 13.2485C98.0036 13.2967 98.8715 13.0777 99.6269 12.5786C100.382 12.0794 100.841 11.3323 101.02 10.3242C101.203 9.30036 100.995 8.36941 100.376 7.56006C99.7719 6.75352 98.7626 6.21595 97.3292 5.96031L93.0606 5.19898L90.8609 17.5323L92.1525 17.7627L93.0431 12.7695L95.5633 13.219ZM94.1359 6.6422L97.0342 7.15912C99.1921 7.544 99.9518 8.75215 99.7046 10.1383C99.581 10.8313 99.2064 11.3821 98.5995 11.7777C97.9926 12.1733 97.1601 12.2849 96.1205 12.0995L93.2538 11.5882L94.1359 6.6422Z" fill="black"/>
<path d="M120.286 13.8085L113.196 10.4604L107.846 21.7884L114.993 25.164L115.512 24.0644L109.552 21.2492L111.492 17.1404L116.889 19.6892L117.408 18.5896L112.012 16.0409L113.863 12.1202L119.766 14.9081L120.286 13.8085Z" fill="black"/>
<path d="M126.016 28.5576L131.175 33.0358L130.105 36.344L131.156 37.2564L135.284 24.2503L134.16 23.2749L121.864 29.1914L122.879 30.0723L126.016 28.5576ZM127.177 27.9765L133.812 24.7739L131.575 31.794L127.177 27.9765Z" fill="black"/>
<path d="M137.879 45.845L138.61 46.9541L148.043 40.7409L150.34 44.2284L151.369 43.5508L146.036 35.4533L145.007 36.1309L147.313 39.6318L137.879 45.845Z" fill="black"/>
<path d="M157.038 55.6539L156.573 54.4268L144.856 58.861L145.321 60.0881L157.038 55.6539Z" fill="black"/>
<path d="M148.849 73.5834L149.043 75.0425L162.126 78.3853L161.938 76.9738L150.421 74.1166L160.794 68.3776L160.602 66.9344L148.849 73.5834Z" fill="black"/>
<path d="M160.805 98.1257L161.909 90.3637L149.506 88.6002L148.393 96.4255L149.597 96.5967L150.525 90.0703L155.024 90.71L154.184 96.6185L155.388 96.7897L156.228 90.8811L160.52 91.4915L159.602 97.9545L160.805 98.1257Z" fill="black"/>
<path d="M152.324 110.515C152.545 109.914 152.242 109.257 151.642 109.036C151.041 108.814 150.384 109.118 150.162 109.718C149.947 110.304 150.25 110.961 150.85 111.183C151.451 111.404 152.108 111.1 152.324 110.515Z" fill="black"/>
<path d="M143.714 117.936L140.006 123.674L136.58 123.08L135.824 124.249L149.282 126.506L150.09 125.256L142.502 113.915L141.773 115.044L143.714 117.936ZM144.452 119.004L148.556 125.123L141.292 123.896L144.452 119.004Z" fill="black"/>
<path d="M127.884 144.205C128.832 144.76 129.914 145.007 131.134 144.923C132.352 144.862 133.499 144.353 134.587 143.409C135.94 142.235 136.667 140.778 136.766 139.061C136.865 137.344 136.317 135.785 135.132 134.42C133.937 133.042 132.506 132.272 130.849 132.12C129.192 131.969 127.658 132.496 126.244 133.723C124.903 134.887 124.184 136.231 124.099 137.745C124.003 139.269 124.495 140.642 125.565 141.875L125.88 142.237L130.895 137.885L130.098 136.967L126.146 140.396C125.439 139.484 125.192 138.491 125.404 137.417C125.604 136.354 126.145 135.44 127.027 134.674C128.151 133.699 129.371 133.297 130.71 133.449C132.047 133.623 133.193 134.26 134.158 135.372C135.133 136.495 135.567 137.728 135.484 139.072C135.388 140.426 134.82 141.554 133.793 142.446C132.887 143.232 131.962 143.632 131.031 143.657C130.099 143.682 129.228 143.484 128.422 143.018L127.884 144.205Z" fill="black"/>
<path d="M113.701 156.184L120.791 152.837L115.441 141.508L108.294 144.883L108.813 145.983L114.774 143.168L116.714 147.277L111.318 149.825L111.837 150.925L117.234 148.376L119.085 152.297L113.182 155.085L113.701 156.184Z" fill="black"/>
<path d="M91.0655 161.941L92.3452 161.736L90.6908 151.403L99.6442 160.567L101.145 160.327L99.1643 147.956L97.8846 148.161L99.572 158.699L90.475 149.348L89.0847 149.57L91.0655 161.941Z" fill="black"/>
<path d="M74.0932 148.86C72.6817 148.672 71.4277 148.876 70.361 149.493C69.2784 150.107 68.4759 150.92 67.9696 151.934L69.0693 152.646C70.0429 150.79 71.6763 149.797 73.8808 150.091C75.2924 150.279 76.3846 150.925 77.1756 152.015C77.9666 153.105 78.2617 154.403 78.0652 155.878C77.8687 157.353 77.2323 158.495 76.1698 159.322C75.0914 160.147 73.8861 160.471 72.538 160.291C71.3485 160.132 70.4371 159.704 69.8037 159.007C69.1523 158.323 68.7441 157.51 68.559 156.597L67.3135 156.98C67.5071 158.071 68.0391 159.046 68.9072 159.92C69.7753 160.795 70.9141 161.334 72.3415 161.524C74.0702 161.754 75.6255 161.348 77.0073 160.305C78.387 159.279 79.1925 157.836 79.4397 155.981C79.6848 154.141 79.2987 152.556 78.2677 151.208C77.2346 149.876 75.8378 149.093 74.0932 148.86Z" fill="black"/>
<path d="M47.2201 153.593L48.6019 154.187L54.6401 150.269L55.9074 157.327L57.3626 157.953L55.7714 149.379L57.8567 144.529L56.6367 144.004L54.545 148.87L47.2201 153.593Z" fill="black"/>
<path d="M39.1197 141.807C39.5722 142.26 40.2962 142.26 40.7488 141.807C41.2014 141.355 41.2015 140.631 40.749 140.178C40.3078 139.737 39.5837 139.737 39.1311 140.189C38.6785 140.642 38.6785 141.366 39.1197 141.807Z" fill="black"/>
<path d="M110.925 60.75H103.125C102.075 60.75 101.625 61.05 101.625 61.575V61.8C101.625 63.15 105.75 63.375 104.7 66L88.35 106.575L70.95 66.075C69.825 63.375 73.725 63.225 73.725 61.8V61.65C73.725 61.05 73.05 60.75 72.15 60.75H61.425C60.45 60.75 59.85 61.05 59.85 61.65V61.8C59.85 63.225 61.875 63.075 63.225 66.075L84.225 112.125C84.825 113.4 85.65 114 86.775 114C87.975 114 88.8 113.55 89.475 112.05L108.825 66C110.1 63 112.35 63.15 112.35 61.8V61.575C112.35 61.05 111.825 60.75 110.925 60.75Z" fill="black"/>
</svg>
